<svg xmlns="http://www.w3.org/2000/svg" width="48" height="48"><path d="M24.125 4.688c-7.767 0-14.062 6.295-14.062 14.062s6.295 14.063 14.062 14.063 14.063-6.296 14.063-14.063S31.892 4.688 24.124 4.688m-.01 28.75L14.32 35.2l-7.828 5.637-4.039 5.61c3.137 1.247 6.972-.025 12.541.038 3.066.035 6.554-.324 8.96-.172 2.306.146 6.718.588 9.37.407 4.94-.337 8.227.229 11.688-.162l-2.957-5.237-7.676-5.738z" style="fill:red;"/><path d="M3 45.125a29.698 39.715 0 0 1 42 0M38.5 19A14.5 14.5 0 0 1 24 33.5 14.5 14.5 0 0 1 9.5 19 14.5 14.5 0 0 1 24 4.5 14.5 14.5 0 0 1 38.5 19" style="fill:none;stroke:#000;stroke-width:3;stroke-linecap:round;stroke-linejoin:round"/></svg>
